<svg fill="none" height="32" viewBox="0 0 32 32" width="32" xmlns="http://www.w3.org/2000/svg"><g fill="#212121"><path d="m11.26 16.2205c0 .43.39.79.87.79s.87-.35.87-.79v-1.5c0-.43-.39-.79-.87-.79s-.87.35-.87.79z"/><path d="m20.0396 17.0105c-.48 0-.87-.36-.87-.79v-1.5c0-.44.39-.79.87-.79s.87.36.87.79v1.5c0 .44-.39.79-.87.79z"/><path d="m8.44309 10.1763c-.21334.0761-.44161-.0793-.44308-.29778l.00018-.01319.00777-3.79169c-.00034-.0062-.0005-.01234-.00049-.01841.00018-.27569.34653-.41995.53663-.20705l3.3256 2.54083c.0893.06949.1308.16857.1303.26604-.0006.13145-.0774.25998-.2158.30907z"/><path d="m24 9.85914c0 .22496-.2249.38776-.4421.31026l-3.3425-1.20988c-.2405-.08531-.2947-.41104-.0853-.5739l3.3193-2.53602c.1939-.2094.5506-.05429.5351.23266z"/><path d="m5.00828 2.68861c-.04672-1.44223 1.6959-2.257184 2.7514-1.2413l7.02262 5.36386c.0848.06598.2059.10935.3361.10935h1.75c.1301 0 .2512-.04337.336-.10935l.007-.00536 7.0156-5.3585c1.0555-1.015876 2.7981-.20095 2.7514 1.24127l.0291 8.02252c.0623.1161.1302.2401.2046.376.8112 1.482 1.6562 2.945 2.5012 4.408l.001.0019c.377.6528.7545 1.3064 1.1286 1.9609l.0017.0031c.5706.9857-.0077 2.1088-.9706 2.3985.0549.1621.1176.3196.1803.4771.0498.1251.0996.2502.1455.3777.0485.1348.1152.356.1268.6136.0115.2556-.0284.6512-.3124 1.0053-.2744.3421-.6564.4975-1.0256.5477-.0236.0053-.0474.01-.0713.0143l.2483.7448c.0153.044.038.1155.0585.2106.0261.1205.0543.3059.0382.5214-.0163.2178-.0815.5069-.2803.7803-.1905.2622-.4551.4427-.7564.5443-.2487.1044-.5266.1488-.813.1183l-.0039-.0004-.3191-.0352c-1.0012-.0734-3.2194-.337-4.5939-.5066l-.3085-.0341-.6752 3.1576-.0231.064c-.516 1.4289-1.881 2.5398-3.5006 2.5398h-3.89c-1.6196 0-2.9846-1.1109-3.5006-2.5398l-.0231-.064-.67604-3.1617c-1.37357.1712-3.99059.4859-5.00916.5523l-.25143.0277-.00384.0004c-.37654.0401-.73488-.0493-1.03113-.2297-.57057-.3061-.75033-.8362-.77894-1.2176-.02608-.2315-.00257-.4714.07596-.7044l.25338-.7664c-.04135-.0072-.08223-.0159-.12255-.0261-.33245-.0564-.66918-.2021-.92467-.494-.27157-.3103-.345-.6647-.35375-.9224-.01346-.3966.11897-.7465.18242-.8926l.2399-.7088c-.97025-.2864-1.510154-1.4284-.95279-2.3918l3.44626-6.0134c.09742-.1742.20226-.3732.31098-.5868zm21.91132 20.53819c-.07-.2102-.1375-.6202-.0311-1.0525.0582-.236.1779-.5156.4151-.7598.2074-.2136.466-.3602.7555-.4403l-3.8275-1.6082-.0127-.0062-.0031-.0015-.0173-.0081c-.016-.0074-.041-.0188-.0739-.0332-.066-.0289-.1634-.0696-.2848-.1152-.2442-.0915-.5785-.1996-.9449-.2703-.7697-.1484-1.5037-.1002-1.9518.3514l-2.0008 2.0145c.0187.4836-.1202.9921-.4724 1.4079l-.0163.0192-1.2403 1.1965c-.229.2656-.5162.4477-.8285.5297.1005.0914.1635.2233.1635.3699v.0035c.0019 1.1722.9474 2.1165 2.12 2.1165.2762 0 .5.2238.5.5 0 .2761-.2238.5-.5.5-1.0997 0-2.0645-.5658-2.62-1.4227-.5554.8569-1.5203 1.4227-2.62 1.4227-.2761 0-.5-.2239-.5-.5 0-.2762.2239-.5.5-.5 1.1727 0 2.1182-.9443 2.12-2.1165v-.0035c0-.1377.0557-.2624.1457-.3529-.3401-.0716-.654-.2608-.9006-.5467l-1.245-1.2011-.0199-.0248c-.3479-.4332-.4763-.9606-.4423-1.4563l-1.9426-1.9559c-.4481-.4516-1.18213-.4998-1.95184-.3514-.36643.0707-.70067.1788-.94493.2703-.1214.0456-.21879.0863-.28473.1152-.03292.0144-.05789.0258-.07395.0332l-.01726.0081-.00337.0016-.01247.0061-3.82743 1.6082c.53417.1477.89702.5031 1.07972.9287.17077.3977.15702.7862.12951 1.0039l-.01217.0963-.25534.7724c1.07259-.0864 3.39628-.3653 4.70117-.528l.00704-.0009.14808-.0164.02402-.0014c.92425-.0572 1.78155.5596 1.98585 1.4993l.0007.0033.6643 3.1065c.2778.6994.9352 1.1621 1.5978 1.1621h3.89c.6626 0 1.32-.4627 1.5978-1.1621l.6643-3.1065.0007-.0033c.1957-.9.9907-1.504 1.8695-1.503l.0544.0001.5594.0617c1.3305.1642 3.3682.406 4.3677.4874zm-9.6712-3.785c.6107 0 1.0738.3371 1.3578.7749l1.6274-1.6385c.8219-.8282 2.0129-.7902 2.8507-.6286.4373.0843.8274.2112 1.1066.3159.1403.0526.2544.1003.3345.1353.0401.0176.0718.032.0942.0424l.0234.011 3.137 1.3181c-.0377-.3866.058-.7681.2505-1.0792.1787-.2889.4632-.5463.828-.6753-.3803-.6669-.7663-1.3305-1.1522-1.9941-.9255-1.5912-1.8508-3.1821-2.6971-4.8182l-.0283-7.81738-6.5525 5.00481c-.4545.35198-1.0118.52759-1.56.52759h-1.75c-.5483 0-1.1056-.17561-1.5601-.52759l-6.5525-5.00477-.02829 7.95014-.10473.2094c-.15304.3061-.31095.6118-.46192.8814l-.00485.0087-3.19758 5.5794c.7152.2576 1.17557.9936 1.06934 1.7672l3.16588-1.3302.02344-.011c.02235-.0104.05406-.0248.09416-.0424.08012-.035.19421-.0827.33452-.1353.27919-.1047.66932-.2316 1.10664-.3159.83779-.1616 2.02889-.1996 2.85089.6288l1.5909 1.6018c.2854-.4199.7391-.7384 1.3342-.7384z"/></g></svg>